<svg version="1.1" viewBox="0.0 0.0 940.1811023622047 474.8871391076116" fill="none" stroke="none" stroke-linecap="square" stroke-miterlimit="10" xmlns:xlink="http://www.w3.org/1999/xlink" xmlns="http://www.w3.org/2000/svg"><clipPath id="p.0"><path d="m0 0l940.1811 0l0 474.88715l-940.1811 0l0 -474.88715z" clip-rule="nonzero"/></clipPath><g clip-path="url(#p.0)"><path fill="#000000" fill-opacity="0.0" d="m0 0l940.1811 0l0 474.88715l-940.1811 0z" fill-rule="evenodd"/><path fill="#000000" fill-opacity="0.0" d="m0 0l960.0 0l0 552.0l-960.0 0z" fill-rule="evenodd"/><path fill="#000000" d="m33.03125 402.8069l0 -248.625l34.703125 0l0 40.046875l-5.34375 -3.015625q2.015625 -10.0 11.359375 -19.171875q9.34375 -9.1875 22.859375 -15.03125q13.515625 -5.84375 27.859375 -5.84375q23.703125 0 42.046875 11.6875q18.359375 11.671875 29.03125 32.03125q10.6875 20.359375 10.6875 46.734375q0 26.03125 -10.515625 46.5625q-10.5 20.515625 -28.859375 32.359375q-18.359375 11.84375 -41.390625 11.84375q-15.34375 0 -29.703125 -6.171875q-14.34375 -6.171875 -24.359375 -15.84375q-10.015625 -9.6875 -12.34375 -20.03125l8.671875 -4.671875l0 117.140625l-34.703125 0zm86.765625 -102.125q15.359375 0 27.375 -7.671875q12.015625 -7.671875 19.015625 -21.015625q7.015625 -13.359375 7.015625 -30.375q0 -17.03125 -6.84375 -30.203125q-6.84375 -13.1875 -18.859375 -20.859375q-12.015625 -7.6875 -27.703125 -7.6875q-15.6875 0 -27.703125 7.515625q-12.015625 7.515625 -19.03125 20.859375q-7.0 13.34375 -7.0 30.375q0 17.015625 7.0 30.375q7.015625 13.34375 19.03125 21.015625q12.015625 7.671875 27.703125 7.671875zm129.49258 28.703125l0 -175.20312l34.375 0l0 175.20312l-34.375 0zm16.6875 -213.92188q-11.015625 0 -17.03125 -5.671875q-6.0 -5.671875 -6.0 -16.015625q0 -9.6875 6.171875 -15.6875q6.171875 -6.015625 16.859375 -6.015625q11.015625 0 17.015625 5.671875q6.015625 5.671875 6.015625 16.03125q0 9.671875 -6.1875 15.6875q-6.171875 6.0 -16.84375 6.0zm198.23123 287.34375l0 -115.140625l6.6875 0q0 8.015625 -5.34375 15.859375q-5.34375 7.84375 -14.359375 14.515625q-9.0 6.671875 -20.015625 10.6875q-11.015625 4.0 -22.703125 4.0q-23.6875 0 -42.375 -11.84375q-18.6875 -11.859375 -29.546875 -32.375q-10.84375 -20.53125 -10.84375 -46.890625q0 -26.375 10.671875 -46.890625q10.6875 -20.53125 29.203125 -32.375q18.53125 -11.84375 41.890625 -11.84375q13.015625 0 24.859375 4.34375q11.859375 4.328125 21.359375 11.34375q9.515625 7.0 15.015625 15.515625q5.515625 8.5 5.515625 17.1875l-10.015625 0.65625l0 -45.71875l34.375 0l0 248.96875l-34.375 0zm-52.0625 -101.796875q15.6875 0 27.703125 -7.671875q12.015625 -7.671875 18.859375 -21.015625q6.84375 -13.359375 6.84375 -30.703125q0 -17.359375 -6.84375 -30.875q-6.84375 -13.515625 -18.859375 -21.1875q-12.015625 -7.6875 -27.703125 -7.6875q-15.6875 0 -27.703125 7.84375q-12.0 7.84375 -18.84375 21.359375q-6.84375 13.515625 -6.84375 30.546875q0 17.015625 6.84375 30.53125q6.84375 13.515625 18.84375 21.1875q12.015625 7.671875 27.703125 7.671875zm195.90887 31.71875q-18.6875 0 -32.546875 -8.671875q-13.84375 -8.6875 -21.359375 -24.375q-7.5 -15.6875 -7.5 -37.375l0 -108.125l34.375 0l0 98.78125q0 15.34375 4.828125 26.53125q4.84375 11.171875 14.015625 17.1875q9.1875 6.0 22.203125 6.0q9.671875 0 17.6875 -3.171875q8.015625 -3.171875 13.84375 -8.84375q5.84375 -5.671875 9.171875 -13.671875q3.34375 -8.015625 3.34375 -17.359375l0 -105.453125l34.375 0l0 175.20312l-34.375 0l0 -36.703125l6.015625 -4.015625q-4.0 12.34375 -13.515625 22.359375q-9.515625 10.015625 -22.53125 15.859375q-13.015625 5.84375 -28.03125 5.84375zm222.26862 0q-27.03125 0 -47.890625 -11.515625q-20.859375 -11.515625 -32.71875 -31.53125q-11.84375 -20.03125 -11.84375 -46.0625q0 -20.703125 6.671875 -37.71875q6.6875 -17.015625 18.53125 -29.53125q11.84375 -12.515625 28.359375 -19.359375q16.53125 -6.84375 35.890625 -6.84375q17.015625 0 31.6875 6.515625q14.6875 6.5 25.53125 17.859375q10.859375 11.34375 16.6875 26.859375q5.84375 15.515625 5.515625 33.875l-0.328125 14.6875l-143.17188 0l-7.6875 -27.375l121.15625 0l-5.015625 5.671875l0 -8.0q-1.0 -11.015625 -7.34375 -19.6875q-6.328125 -8.6875 -16.015625 -13.6875q-9.671875 -5.015625 -21.015625 -5.015625q-18.03125 0 -30.375 6.84375q-12.34375 6.84375 -18.6875 20.03125q-6.34375 13.171875 -6.34375 32.53125q0 18.359375 7.671875 31.875q7.671875 13.515625 21.6875 20.859375q14.03125 7.34375 32.375 7.34375q13.015625 0 24.1875 -4.328125q11.1875 -4.34375 24.203125 -15.703125l17.359375 24.375q-8.015625 8.0 -19.53125 14.015625q-11.5 6.0 -24.359375 9.515625q-12.84375 3.5 -25.1875 3.5z" fill-rule="nonzero"/></g></svg>